<svg width="24" height="23" viewBox="0 0 24 23" fill="none" xmlns="http://www.w3.org/2000/svg">
<g clip-path="url(#clip0_288_3478)">
<path d="M12 2.0709C15.2063 2.0709 15.5859 2.08437 16.8469 2.13828C18.0188 2.1877 18.6516 2.37637 19.0734 2.53359C19.6313 2.74023 20.0344 2.9918 20.4516 3.3916C20.8734 3.7959 21.1313 4.17773 21.3469 4.7123C21.5109 5.1166 21.7078 5.72754 21.7594 6.84609C21.8156 8.05898 21.8297 8.42285 21.8297 11.491C21.8297 14.5637 21.8156 14.9275 21.7594 16.1359C21.7078 17.259 21.5109 17.8654 21.3469 18.2697C21.1313 18.8043 20.8687 19.1906 20.4516 19.5904C20.0297 19.9947 19.6313 20.2418 19.0734 20.4484C18.6516 20.6057 18.0141 20.7943 16.8469 20.8438C15.5813 20.8977 15.2016 20.9111 12 20.9111C8.79375 20.9111 8.41406 20.8977 7.15313 20.8438C5.98125 20.7943 5.34844 20.6057 4.92656 20.4484C4.36875 20.2418 3.96563 19.9902 3.54844 19.5904C3.12656 19.1861 2.86875 18.8043 2.65313 18.2697C2.48906 17.8654 2.29219 17.2545 2.24063 16.1359C2.18438 14.923 2.17031 14.5592 2.17031 11.491C2.17031 8.41836 2.18438 8.05449 2.24063 6.84609C2.29219 5.72305 2.48906 5.1166 2.65313 4.7123C2.86875 4.17773 3.13125 3.79141 3.54844 3.3916C3.97031 2.9873 4.36875 2.74023 4.92656 2.53359C5.34844 2.37637 5.98594 2.1877 7.15313 2.13828C8.41406 2.08437 8.79375 2.0709 12 2.0709ZM12 0C8.74219 0 8.33438 0.0134766 7.05469 0.0673828C5.77969 0.121289 4.90313 0.318945 4.14375 0.601953C3.35156 0.898437 2.68125 1.28926 2.01563 1.93164C1.34531 2.56953 0.9375 3.21191 0.628125 3.9666C0.332812 4.69883 0.126563 5.53437 0.0703125 6.75625C0.0140625 7.98711 0 8.37793 0 11.5C0 14.6221 0.0140625 15.0129 0.0703125 16.2393C0.126563 17.4611 0.332812 18.3012 0.628125 19.0289C0.9375 19.7881 1.34531 20.4305 2.01563 21.0684C2.68125 21.7062 3.35156 22.1016 4.13906 22.3936C4.90313 22.6766 5.775 22.8742 7.05 22.9281C8.32969 22.982 8.7375 22.9955 11.9953 22.9955C15.2531 22.9955 15.6609 22.982 16.9406 22.9281C18.2156 22.8742 19.0922 22.6766 19.8516 22.3936C20.6391 22.1016 21.3094 21.7062 21.975 21.0684C22.6406 20.4305 23.0531 19.7881 23.3578 19.0334C23.6531 18.3012 23.8594 17.4656 23.9156 16.2437C23.9719 15.0174 23.9859 14.6266 23.9859 11.5045C23.9859 8.38242 23.9719 7.9916 23.9156 6.76523C23.8594 5.54336 23.6531 4.70332 23.3578 3.97559C23.0625 3.21191 22.6547 2.56953 21.9844 1.93164C21.3188 1.29375 20.6484 0.898438 19.8609 0.606445C19.0969 0.323437 18.225 0.125781 16.95 0.071875C15.6656 0.0134766 15.2578 0 12 0Z" fill="white"/>
<path d="M12 5.59277C8.59688 5.59277 5.83594 8.23867 5.83594 11.5C5.83594 14.7613 8.59688 17.4072 12 17.4072C15.4031 17.4072 18.1641 14.7613 18.1641 11.5C18.1641 8.23867 15.4031 5.59277 12 5.59277ZM12 15.3318C9.79219 15.3318 8.00156 13.6158 8.00156 11.5C8.00156 9.38418 9.79219 7.66816 12 7.66816C14.2078 7.66816 15.9984 9.38418 15.9984 11.5C15.9984 13.6158 14.2078 15.3318 12 15.3318Z" fill="white"/>
<path d="M19.8469 5.35908C19.8469 6.12276 19.2 6.73819 18.4078 6.73819C17.6109 6.73819 16.9688 6.11826 16.9688 5.35908C16.9688 4.59541 17.6156 3.97998 18.4078 3.97998C19.2 3.97998 19.8469 4.5999 19.8469 5.35908Z" fill="white"/>
</g>
<defs>
<clipPath id="clip0_288_3478">
<rect width="24" height="23" fill="white"/>
</clipPath>
</defs>
</svg>
