<svg width="29" height="29" viewBox="0 0 29 29" fill="none" xmlns="http://www.w3.org/2000/svg">
<path d="M26.547 22.1488C26.547 22.5838 26.4504 23.0309 26.245 23.4659C26.0395 23.9009 25.7737 24.3117 25.4233 24.6984C24.8312 25.3509 24.1787 25.8222 23.4416 26.1242C22.7166 26.4263 21.9312 26.5834 21.0854 26.5834C19.8529 26.5834 18.5358 26.2934 17.1462 25.7013C15.7566 25.1092 14.367 24.3117 12.9895 23.3088C11.6 22.2938 10.2829 21.1701 9.02621 19.9255C7.78163 18.6688 6.65788 17.3517 5.65496 15.9742C4.66413 14.5967 3.86663 13.2192 3.28663 11.8538C2.70663 10.4763 2.41663 9.15925 2.41663 7.90258C2.41663 7.08091 2.56163 6.2955 2.85163 5.5705C3.14163 4.83341 3.60079 4.15675 4.24121 3.55258C5.01454 2.79133 5.86038 2.41675 6.75454 2.41675C7.09288 2.41675 7.43121 2.48925 7.73329 2.63425C8.04746 2.77925 8.32538 2.99675 8.54288 3.31091L11.3462 7.26216C11.5637 7.56425 11.7208 7.84216 11.8295 8.108C11.9383 8.36175 11.9987 8.6155 11.9987 8.84508C11.9987 9.13508 11.9141 9.42508 11.745 9.703C11.5879 9.98091 11.3583 10.2709 11.0683 10.5609L10.15 11.5155C10.017 11.6484 9.95663 11.8055 9.95663 11.9988C9.95663 12.0955 9.96871 12.1801 9.99288 12.2767C10.0291 12.3734 10.0654 12.4459 10.0895 12.5184C10.307 12.9172 10.6816 13.4367 11.2133 14.0651C11.757 14.6934 12.337 15.3338 12.9654 15.9742C13.6179 16.6147 14.2462 17.2067 14.8866 17.7505C15.515 18.2822 16.0345 18.6447 16.4454 18.8622C16.5058 18.8863 16.5783 18.9226 16.6629 18.9588C16.7595 18.9951 16.8562 19.0072 16.965 19.0072C17.1704 19.0072 17.3275 18.9347 17.4604 18.8017L18.3787 17.8955C18.6808 17.5934 18.9708 17.3638 19.2487 17.2188C19.5266 17.0497 19.8045 16.9651 20.1066 16.9651C20.3362 16.9651 20.5779 17.0134 20.8437 17.1222C21.1095 17.2309 21.3875 17.388 21.6895 17.5934L25.6891 20.433C26.0033 20.6505 26.2208 20.9042 26.3537 21.2063C26.4745 21.5084 26.547 21.8105 26.547 22.1488Z" stroke="#FEFEFE" stroke-width="1.5" stroke-miterlimit="10"/>
</svg>
